<svg xmlns="http://www.w3.org/2000/svg" width="560" height="640" viewBox="0 0 560 640" role="img" aria-label="All-time top songs ranking">
<rect width="560" height="640" fill="#f7f6f0"/>
<rect x="16" y="16" width="528" height="62" fill="#22382d"/>
<text x="32.0" y="46.0" font-family="Segoe UI, Arial, sans-serif" font-size="22" font-weight="800" fill="#ffffff" text-anchor="start">All-Time</text>
<text x="32.0" y="68.0" font-family="Segoe UI, Arial, sans-serif" font-size="22" font-weight="800" fill="#ffffff" text-anchor="start">Top Songs</text>
<text x="528.0" y="55.0" font-family="Segoe UI, Arial, sans-serif" font-size="13" font-weight="800" fill="#dfe8df" text-anchor="end">Spotify long term</text>
<rect x="16" y="84.0" width="528" height="24" fill="#fffefa" stroke="#d9ded7" stroke-width="0.5"/>
<text x="30.0" y="102.0" font-family="Segoe UI, Arial, sans-serif" font-size="11" font-weight="800" fill="#557e64" text-anchor="start">01</text>
<rect x="418" y="90.0" width="118" height="8" fill="#d9ded7"/>
<rect x="418" y="90.0" width="118.0" height="8" fill="#557e64" fill-opacity="0.86"/>
<text x="68.0" y="102.0" font-family="Segoe UI, Arial, sans-serif" font-size="12" font-weight="800" fill="#102027" text-anchor="start">Daylight Dies - Dismantling Devotion</text>
<rect x="16" y="111.0" width="528" height="24" fill="#f1f4ee" stroke="#d9ded7" stroke-width="0.5"/>
<text x="30.0" y="129.0" font-family="Segoe UI, Arial, sans-serif" font-size="11" font-weight="800" fill="#526f92" text-anchor="start">02</text>
<rect x="418" y="117.0" width="118" height="8" fill="#d9ded7"/>
<rect x="418" y="117.0" width="111.4" height="8" fill="#526f92" fill-opacity="0.86"/>
<text x="68.0" y="129.0" font-family="Segoe UI, Arial, sans-serif" font-size="12" font-weight="800" fill="#102027" text-anchor="start">Realm of Wolves - Hegemon Of Cold Seas</text>
<rect x="16" y="138.0" width="528" height="24" fill="#fffefa" stroke="#d9ded7" stroke-width="0.5"/>
<text x="30.0" y="156.0" font-family="Segoe UI, Arial, sans-serif" font-size="11" font-weight="800" fill="#a96855" text-anchor="start">03</text>
<rect x="418" y="144.0" width="118" height="8" fill="#d9ded7"/>
<rect x="418" y="144.0" width="104.9" height="8" fill="#a96855" fill-opacity="0.86"/>
<text x="68.0" y="156.0" font-family="Segoe UI, Arial, sans-serif" font-size="12" font-weight="800" fill="#102027" text-anchor="start">Realm of Wolves - And We Become Wolves</text>
<rect x="16" y="165.0" width="528" height="24" fill="#f1f4ee" stroke="#d9ded7" stroke-width="0.5"/>
<text x="30.0" y="183.0" font-family="Segoe UI, Arial, sans-serif" font-size="11" font-weight="800" fill="#7d744e" text-anchor="start">04</text>
<rect x="418" y="171.0" width="118" height="8" fill="#d9ded7"/>
<rect x="418" y="171.0" width="98.3" height="8" fill="#7d744e" fill-opacity="0.86"/>
<text x="68.0" y="183.0" font-family="Segoe UI, Arial, sans-serif" font-size="12" font-weight="800" fill="#102027" text-anchor="start">Worm; Marty Friedman - Witchmoon: The Inferna…</text>
<rect x="16" y="192.0" width="528" height="24" fill="#fffefa" stroke="#d9ded7" stroke-width="0.5"/>
<text x="30.0" y="210.0" font-family="Segoe UI, Arial, sans-serif" font-size="11" font-weight="800" fill="#557e64" text-anchor="start">05</text>
<rect x="418" y="198.0" width="118" height="8" fill="#d9ded7"/>
<rect x="418" y="198.0" width="91.8" height="8" fill="#557e64" fill-opacity="0.86"/>
<text x="68.0" y="210.0" font-family="Segoe UI, Arial, sans-serif" font-size="12" font-weight="800" fill="#102027" text-anchor="start">VHS Dreams - Nightdrive</text>
<rect x="16" y="219.0" width="528" height="24" fill="#f1f4ee" stroke="#d9ded7" stroke-width="0.5"/>
<text x="30.0" y="237.0" font-family="Segoe UI, Arial, sans-serif" font-size="11" font-weight="800" fill="#526f92" text-anchor="start">06</text>
<rect x="418" y="225.0" width="118" height="8" fill="#d9ded7"/>
<rect x="418" y="225.0" width="85.2" height="8" fill="#526f92" fill-opacity="0.86"/>
<text x="68.0" y="237.0" font-family="Segoe UI, Arial, sans-serif" font-size="12" font-weight="800" fill="#102027" text-anchor="start">Shape Of Despair - Dissolution</text>
<rect x="16" y="246.0" width="528" height="24" fill="#fffefa" stroke="#d9ded7" stroke-width="0.5"/>
<text x="30.0" y="264.0" font-family="Segoe UI, Arial, sans-serif" font-size="11" font-weight="800" fill="#a96855" text-anchor="start">07</text>
<rect x="418" y="252.0" width="118" height="8" fill="#d9ded7"/>
<rect x="418" y="252.0" width="78.7" height="8" fill="#a96855" fill-opacity="0.86"/>
<text x="68.0" y="264.0" font-family="Segoe UI, Arial, sans-serif" font-size="12" font-weight="800" fill="#102027" text-anchor="start">Ben Kenney; Ashley Mendel; Rachel Ana Dobken - T…</text>
<rect x="16" y="273.0" width="528" height="24" fill="#f1f4ee" stroke="#d9ded7" stroke-width="0.5"/>
<text x="30.0" y="291.0" font-family="Segoe UI, Arial, sans-serif" font-size="11" font-weight="800" fill="#7d744e" text-anchor="start">08</text>
<rect x="418" y="279.0" width="118" height="8" fill="#d9ded7"/>
<rect x="418" y="279.0" width="72.1" height="8" fill="#7d744e" fill-opacity="0.86"/>
<text x="68.0" y="291.0" font-family="Segoe UI, Arial, sans-serif" font-size="12" font-weight="800" fill="#102027" text-anchor="start">Curta&#x27;n Wall; Elvya - The Dark Ages</text>
<rect x="16" y="300.0" width="528" height="24" fill="#fffefa" stroke="#d9ded7" stroke-width="0.5"/>
<text x="30.0" y="318.0" font-family="Segoe UI, Arial, sans-serif" font-size="11" font-weight="800" fill="#557e64" text-anchor="start">09</text>
<rect x="418" y="306.0" width="118" height="8" fill="#d9ded7"/>
<rect x="418" y="306.0" width="65.6" height="8" fill="#557e64" fill-opacity="0.86"/>
<text x="68.0" y="318.0" font-family="Segoe UI, Arial, sans-serif" font-size="12" font-weight="800" fill="#102027" text-anchor="start">220 Volt - Love Is All You Need</text>
<rect x="16" y="327.0" width="528" height="24" fill="#f1f4ee" stroke="#d9ded7" stroke-width="0.5"/>
<text x="30.0" y="345.0" font-family="Segoe UI, Arial, sans-serif" font-size="11" font-weight="800" fill="#526f92" text-anchor="start">10</text>
<rect x="418" y="333.0" width="118" height="8" fill="#d9ded7"/>
<rect x="418" y="333.0" width="59.0" height="8" fill="#526f92" fill-opacity="0.86"/>
<text x="68.0" y="345.0" font-family="Segoe UI, Arial, sans-serif" font-size="12" font-weight="800" fill="#102027" text-anchor="start">Whispering Void - Vi Finnes</text>
<rect x="16" y="354.0" width="528" height="24" fill="#fffefa" stroke="#d9ded7" stroke-width="0.5"/>
<text x="30.0" y="372.0" font-family="Segoe UI, Arial, sans-serif" font-size="11" font-weight="800" fill="#a96855" text-anchor="start">11</text>
<rect x="418" y="360.0" width="118" height="8" fill="#d9ded7"/>
<rect x="418" y="360.0" width="52.4" height="8" fill="#a96855" fill-opacity="0.86"/>
<text x="68.0" y="372.0" font-family="Segoe UI, Arial, sans-serif" font-size="12" font-weight="800" fill="#102027" text-anchor="start">Obsequiae - Anlace and Heart</text>
<rect x="16" y="381.0" width="528" height="24" fill="#f1f4ee" stroke="#d9ded7" stroke-width="0.5"/>
<text x="30.0" y="399.0" font-family="Segoe UI, Arial, sans-serif" font-size="11" font-weight="800" fill="#7d744e" text-anchor="start">12</text>
<rect x="418" y="387.0" width="118" height="8" fill="#d9ded7"/>
<rect x="418" y="387.0" width="45.9" height="8" fill="#7d744e" fill-opacity="0.86"/>
<text x="68.0" y="399.0" font-family="Segoe UI, Arial, sans-serif" font-size="12" font-weight="800" fill="#102027" text-anchor="start">Сруб - Умирая радуй</text>
<rect x="16" y="408.0" width="528" height="24" fill="#fffefa" stroke="#d9ded7" stroke-width="0.5"/>
<text x="30.0" y="426.0" font-family="Segoe UI, Arial, sans-serif" font-size="11" font-weight="800" fill="#557e64" text-anchor="start">13</text>
<rect x="418" y="414.0" width="118" height="8" fill="#d9ded7"/>
<rect x="418" y="414.0" width="39.3" height="8" fill="#557e64" fill-opacity="0.86"/>
<text x="68.0" y="426.0" font-family="Segoe UI, Arial, sans-serif" font-size="12" font-weight="800" fill="#102027" text-anchor="start">Counting Hours - Timeless Ones</text>
<rect x="16" y="435.0" width="528" height="24" fill="#f1f4ee" stroke="#d9ded7" stroke-width="0.5"/>
<text x="30.0" y="453.0" font-family="Segoe UI, Arial, sans-serif" font-size="11" font-weight="800" fill="#526f92" text-anchor="start">14</text>
<rect x="418" y="441.0" width="118" height="8" fill="#d9ded7"/>
<rect x="418" y="441.0" width="32.8" height="8" fill="#526f92" fill-opacity="0.86"/>
<text x="68.0" y="453.0" font-family="Segoe UI, Arial, sans-serif" font-size="12" font-weight="800" fill="#102027" text-anchor="start">The Flight of Sleipnir - Voland</text>
<rect x="16" y="462.0" width="528" height="24" fill="#fffefa" stroke="#d9ded7" stroke-width="0.5"/>
<text x="30.0" y="480.0" font-family="Segoe UI, Arial, sans-serif" font-size="11" font-weight="800" fill="#a96855" text-anchor="start">15</text>
<rect x="418" y="468.0" width="118" height="8" fill="#d9ded7"/>
<rect x="418" y="468.0" width="26.2" height="8" fill="#a96855" fill-opacity="0.86"/>
<text x="68.0" y="480.0" font-family="Segoe UI, Arial, sans-serif" font-size="12" font-weight="800" fill="#102027" text-anchor="start">Комонь; Павел Паньковский; Аркадий Пикунов - Т…</text>
<rect x="16" y="489.0" width="528" height="24" fill="#f1f4ee" stroke="#d9ded7" stroke-width="0.5"/>
<text x="30.0" y="507.0" font-family="Segoe UI, Arial, sans-serif" font-size="11" font-weight="800" fill="#7d744e" text-anchor="start">16</text>
<rect x="418" y="495.0" width="118" height="8" fill="#d9ded7"/>
<rect x="418" y="495.0" width="19.7" height="8" fill="#7d744e" fill-opacity="0.86"/>
<text x="68.0" y="507.0" font-family="Segoe UI, Arial, sans-serif" font-size="12" font-weight="800" fill="#102027" text-anchor="start">Sylvan - Posthumous Silence</text>
<rect x="16" y="516.0" width="528" height="24" fill="#fffefa" stroke="#d9ded7" stroke-width="0.5"/>
<text x="30.0" y="534.0" font-family="Segoe UI, Arial, sans-serif" font-size="11" font-weight="800" fill="#557e64" text-anchor="start">17</text>
<rect x="418" y="522.0" width="118" height="8" fill="#d9ded7"/>
<rect x="418" y="522.0" width="13.1" height="8" fill="#557e64" fill-opacity="0.86"/>
<text x="68.0" y="534.0" font-family="Segoe UI, Arial, sans-serif" font-size="12" font-weight="800" fill="#102027" text-anchor="start">Fogweaver - Spell-woven</text>
<rect x="16" y="543.0" width="528" height="24" fill="#f1f4ee" stroke="#d9ded7" stroke-width="0.5"/>
<text x="30.0" y="561.0" font-family="Segoe UI, Arial, sans-serif" font-size="11" font-weight="800" fill="#526f92" text-anchor="start">18</text>
<rect x="418" y="549.0" width="118" height="8" fill="#d9ded7"/>
<rect x="418" y="549.0" width="6.6" height="8" fill="#526f92" fill-opacity="0.86"/>
<text x="68.0" y="561.0" font-family="Segoe UI, Arial, sans-serif" font-size="12" font-weight="800" fill="#102027" text-anchor="start">Psilocybe Larvae - Новый дивный мир</text>
<rect x="16" y="588" width="528" height="34" fill="#fffefa" stroke="#c7d0c7"/>
<text x="30.0" y="610.0" font-family="Segoe UI, Arial, sans-serif" font-size="12" font-weight="800" fill="#557e64" text-anchor="start">20 cached long-term tracks</text>
<text x="530.0" y="610.0" font-family="Segoe UI, Arial, sans-serif" font-size="12" font-weight="800" fill="#526f92" text-anchor="end">covers shown beside this rank</text>
</svg>
