<svg xmlns="http://www.w3.org/2000/svg" width="1200" height="220" viewBox="0 0 1200 220" role="img" aria-label="Maks Krutikov Spotify Library">
  <defs>
    <linearGradient id="g" x1="0" y1="0" x2="1" y2="1">
      <stop offset="0" stop-color="#eef3ef"/>
      <stop offset=".58" stop-color="#f8f5ee"/>
      <stop offset="1" stop-color="#e7eef2"/>
    </linearGradient>
    <linearGradient id="line" x1="0" y1="0" x2="1" y2="0">
      <stop offset="0" stop-color="#5f8f73"/>
      <stop offset=".52" stop-color="#6d86a6"/>
      <stop offset="1" stop-color="#b8765f"/>
    </linearGradient>
  </defs>
  <rect width="1200" height="220" rx="18" fill="url(#g)"/>
  <circle cx="1024" cy="104" r="58" fill="none" stroke="#d2ded7" stroke-width="18" opacity=".72"/>
  <circle cx="1024" cy="104" r="20" fill="#f8f5ee" stroke="#b7c9bf" stroke-width="2"/>
  <path d="M0 164 C160 134 250 184 396 154 S650 126 790 150 1020 176 1200 132" fill="none" stroke="url(#line)" stroke-width="4" opacity=".75"/>
  <path d="M0 190 C210 176 300 202 456 184 S732 160 900 176 1050 196 1200 172" fill="none" stroke="#6d86a6" stroke-width="2" opacity=".34"/>
  <rect x="32" y="30" width="1136" height="160" rx="14" fill="#fbfaf5" opacity=".9" stroke="#c8d4cc"/>
  <text x="58" y="84" font-family="Segoe UI, Arial, sans-serif" font-size="22" font-weight="700" fill="#5f8f73">PERSONAL SPOTIFY LIBRARY</text>
  <text x="58" y="132" font-family="Segoe UI, Arial, sans-serif" font-size="42" font-weight="800" fill="#1e2f2b">Maks Krutikov Spotify Library</text>
  <text x="60" y="166" font-family="Segoe UI, Arial, sans-serif" font-size="18" fill="#586b63">1972 tracks / 1367 artists / 1958-2026</text>
  <text x="970" y="72" font-family="Segoe UI, Arial, sans-serif" font-size="16" font-weight="700" fill="#5f8f73">CSV archive</text>
  <text x="970" y="100" font-family="Segoe UI, Arial, sans-serif" font-size="16" font-weight="700" fill="#6d86a6">Genre metadata</text>
  <text x="970" y="128" font-family="Segoe UI, Arial, sans-serif" font-size="16" font-weight="700" fill="#b8765f">Weekly refresh</text>
</svg>
