<svg xmlns="http://www.w3.org/2000/svg" width="720" height="456" viewBox="0 0 720 456" role="img" aria-label="Tracks by decade">
<rect width="720" height="456" fill="#eef3ef"/>
<rect x="14" y="14" width="692" height="428" rx="10" fill="#fbfaf5" stroke="#b8765f" stroke-opacity=".55"/>
<text x="32" y="46" font-family="Segoe UI, Arial, sans-serif" font-size="26" font-weight="700" fill="#1e2f2b">Tracks by decade</text>
<text x="32" y="101" font-family="Segoe UI, Arial, sans-serif" font-size="20" fill="#1e2f2b">2010s</text>
<rect x="245" y="83" width="419" height="22" rx="5" fill="#e4e9e3"/>
<rect x="245" y="83" width="419" height="22" rx="5" fill="#b8765f"/>
<text x="676" y="101" font-family="Segoe UI, Arial, sans-serif" font-size="18" font-weight="700" fill="#1e2f2b">591</text>
<text x="32" y="145" font-family="Segoe UI, Arial, sans-serif" font-size="20" fill="#1e2f2b">2020s</text>
<rect x="245" y="127" width="419" height="22" rx="5" fill="#e4e9e3"/>
<rect x="245" y="127" width="392" height="22" rx="5" fill="#b8765f"/>
<text x="676" y="145" font-family="Segoe UI, Arial, sans-serif" font-size="18" font-weight="700" fill="#1e2f2b">554</text>
<text x="32" y="189" font-family="Segoe UI, Arial, sans-serif" font-size="20" fill="#1e2f2b">2000s</text>
<rect x="245" y="171" width="419" height="22" rx="5" fill="#e4e9e3"/>
<rect x="245" y="171" width="256" height="22" rx="5" fill="#b8765f"/>
<text x="676" y="189" font-family="Segoe UI, Arial, sans-serif" font-size="18" font-weight="700" fill="#1e2f2b">362</text>
<text x="32" y="233" font-family="Segoe UI, Arial, sans-serif" font-size="20" fill="#1e2f2b">1990s</text>
<rect x="245" y="215" width="419" height="22" rx="5" fill="#e4e9e3"/>
<rect x="245" y="215" width="155" height="22" rx="5" fill="#b8765f"/>
<text x="676" y="233" font-family="Segoe UI, Arial, sans-serif" font-size="18" font-weight="700" fill="#1e2f2b">219</text>
<text x="32" y="277" font-family="Segoe UI, Arial, sans-serif" font-size="20" fill="#1e2f2b">1980s</text>
<rect x="245" y="259" width="419" height="22" rx="5" fill="#e4e9e3"/>
<rect x="245" y="259" width="86" height="22" rx="5" fill="#b8765f"/>
<text x="676" y="277" font-family="Segoe UI, Arial, sans-serif" font-size="18" font-weight="700" fill="#1e2f2b">122</text>
<text x="32" y="321" font-family="Segoe UI, Arial, sans-serif" font-size="20" fill="#1e2f2b">1970s</text>
<rect x="245" y="303" width="419" height="22" rx="5" fill="#e4e9e3"/>
<rect x="245" y="303" width="74" height="22" rx="5" fill="#b8765f"/>
<text x="676" y="321" font-family="Segoe UI, Arial, sans-serif" font-size="18" font-weight="700" fill="#1e2f2b">105</text>
<text x="32" y="365" font-family="Segoe UI, Arial, sans-serif" font-size="20" fill="#1e2f2b">1960s</text>
<rect x="245" y="347" width="419" height="22" rx="5" fill="#e4e9e3"/>
<rect x="245" y="347" width="12" height="22" rx="5" fill="#b8765f"/>
<text x="676" y="365" font-family="Segoe UI, Arial, sans-serif" font-size="18" font-weight="700" fill="#1e2f2b">18</text>
<text x="32" y="409" font-family="Segoe UI, Arial, sans-serif" font-size="20" fill="#1e2f2b">1950s</text>
<rect x="245" y="391" width="419" height="22" rx="5" fill="#e4e9e3"/>
<rect x="245" y="391" width="5" height="22" rx="5" fill="#b8765f"/>
<text x="676" y="409" font-family="Segoe UI, Arial, sans-serif" font-size="18" font-weight="700" fill="#1e2f2b">1</text>
</svg>
